<?xml version="1.0" standalone="no"?>
<!DOCTYPE svg PUBLIC "-//W3C//DTD SVG 20010904//EN"
 "http://www.w3.org/TR/2001/REC-SVG-20010904/DTD/svg10.dtd">
<svg version="1.0" xmlns="http://www.w3.org/2000/svg"
 width="512.000000pt" height="512.000000pt" viewBox="0 0 512.000000 512.000000"
 preserveAspectRatio="xMidYMid meet">

<g transform="translate(0.000000,512.000000) scale(0.100000,-0.100000)"
fill="#000000" stroke="none">
<path d="M3616 4644 c-26 -25 -19 -45 37 -99 68 -66 83 -111 66 -193 -20 -94
1 -117 80 -88 94 33 158 18 233 -57 32 -32 58 -34 81 -9 25 27 22 37 -25 89
-56 60 -126 93 -200 93 -49 0 -58 3 -58 18 0 40 -29 124 -55 162 -32 46 -100
100 -126 100 -10 0 -25 -7 -33 -16z"/>
<path d="M2702 4448 c-23 -23 -13 -56 26 -88 74 -59 103 -153 72 -234 -23 -61
16 -89 85 -60 47 19 122 21 156 4 13 -7 43 -30 66 -51 46 -42 54 -45 84 -29
35 19 24 63 -27 110 -61 56 -122 82 -195 83 l-59 0 0 41 c0 59 -39 134 -98
189 -52 47 -86 59 -110 35z"/>
<path d="M3544 3800 c-45 -17 -38 -62 16 -100 69 -49 96 -140 68 -232 -10 -35
-9 -41 9 -60 l21 -20 56 21 c31 11 69 21 84 21 39 -1 101 -32 145 -74 44 -41
45 -41 75 -20 34 23 27 55 -20 101 -63 60 -121 87 -194 87 l-62 1 -5 51 c-7
65 -28 107 -81 162 -51 54 -84 72 -112 62z"/>
<path d="M2670 3248 c0 -68 -22 -152 -58 -224 -28 -55 -30 -56 -73 -58 -71 -3
-115 -31 -174 -111 -29 -40 -94 -115 -143 -166 -94 -98 -123 -143 -143 -220
-11 -40 -10 -50 7 -85 24 -49 90 -99 156 -119 29 -8 115 -20 192 -26 78 -6
154 -16 169 -21 31 -12 57 -54 57 -93 0 -26 1 -26 58 -20 61 6 438 35 460 35
11 0 13 54 10 283 l-3 283 -33 66 c-37 75 -99 136 -173 170 -46 21 -48 25 -64
86 -38 151 -111 241 -217 267 -28 7 -28 7 -28 -47z"/>
<path d="M4875 2161 c-387 -95 -531 -242 -512 -521 6 -85 23 -159 92 -405 57
-206 77 -338 78 -515 1 -171 -10 -235 -58 -315 -47 -80 -134 -125 -244 -125
l-39 0 -5 218 c-6 246 -16 305 -75 416 -47 89 -172 221 -352 371 -214 178
-337 317 -405 456 l-28 56 -41 -9 c-22 -4 -196 -20 -386 -34 -222 -17 -348
-30 -353 -38 -36 -55 -60 -246 -47 -366 29 -251 19 -395 -39 -568 -57 -171
-181 -602 -181 -631 0 -16 8 -39 18 -51 l18 -23 999 2 c576 1 1020 6 1049 12
128 23 237 110 295 233 51 106 63 167 68 349 8 247 -14 381 -122 762 -48 170
-53 277 -15 345 48 85 143 139 326 185 114 28 130 37 144 79 15 45 -7 99 -49
120 -36 19 -46 19 -136 -3z"/>
</g>
</svg>
